<?xml version="1.0" standalone="no"?>
<!DOCTYPE svg PUBLIC "-//W3C//DTD SVG 20010904//EN"
 "http://www.w3.org/TR/2001/REC-SVG-20010904/DTD/svg10.dtd">
<svg version="1.0" xmlns="http://www.w3.org/2000/svg"
 width="744.000000pt" height="716.000000pt" viewBox="0 0 744.000000 716.000000"
 preserveAspectRatio="xMidYMid meet">

<g transform="translate(0.000000,716.000000) scale(0.100000,-0.100000)"
fill="#000000" stroke="none">
<path d="M3580 5979 c-466 -27 -910 -191 -1297 -480 -117 -87 -366 -333 -450
-444 -150 -199 -278 -431 -358 -649 -48 -132 -100 -335 -122 -481 -24 -166
-24 -514 0 -680 61 -408 222 -788 480 -1130 87 -115 334 -358 457 -449 465
-345 1009 -508 1581 -475 608 35 1156 288 1584 730 191 198 308 365 430 614
154 313 229 613 242 965 21 577 -169 1146 -532 1595 -92 113 -295 312 -400
392 -474 358 -1027 527 -1615 492z m445 -275 c394 -52 764 -217 1084 -483 224
-185 403 -414 540 -692 525 -1059 81 -2352 -984 -2869 -201 -98 -409 -161
-640 -195 -148 -22 -442 -22 -590 0 -1301 194 -2120 1460 -1759 2718 112 391
342 750 648 1014 479 412 1077 590 1701 507z"/>
<path d="M3691 4269 c-85 -16 -161 -80 -161 -134 0 -9 11 -27 26 -41 28 -29
57 -27 106 7 44 31 92 35 117 10 34 -34 26 -60 -32 -116 -77 -74 -82 -81 -87
-157 l-5 -70 -125 -47 c-329 -126 -630 -312 -842 -521 -82 -81 -98 -102 -98
-127 0 -78 135 -120 498 -153 475 -44 1280 -25 1579 36 217 45 251 91 146 204
-198 215 -551 437 -903 569 l-105 40 -3 46 c-3 46 -2 47 67 113 38 37 74 80
80 95 16 40 14 113 -4 146 -39 77 -150 121 -254 100z m162 -670 c252 -92 530
-250 726 -414 110 -91 114 -85 -66 -109 -410 -53 -1313 -45 -1656 14 -37 7
-67 14 -67 16 0 2 42 38 93 81 160 133 367 261 559 345 106 46 267 107 286
107 6 1 63 -17 125 -40z"/>
</g>
</svg>
