<?xml version="1.0" standalone="no"?>
<!DOCTYPE svg PUBLIC "-//W3C//DTD SVG 20010904//EN"
 "http://www.w3.org/TR/2001/REC-SVG-20010904/DTD/svg10.dtd">
<svg version="1.0" xmlns="http://www.w3.org/2000/svg"
 width="2000.000000pt" height="1500.000000pt" viewBox="0 0 2000.000000 1500.000000"
 preserveAspectRatio="xMidYMid meet">

<g transform="translate(0.000000,1500.000000) scale(0.100000,-0.100000)"
fill="#000000" stroke="none">
<path d="M4760 9899 c-466 -27 -910 -191 -1297 -480 -117 -87 -366 -333 -450
-444 -150 -199 -278 -431 -358 -649 -48 -132 -100 -335 -122 -481 -24 -166
-24 -514 0 -680 61 -408 222 -788 480 -1130 87 -115 334 -358 457 -449 465
-345 1009 -508 1581 -475 608 35 1156 288 1584 730 191 198 308 365 430 614
154 313 229 613 242 965 21 577 -169 1146 -532 1595 -92 113 -295 312 -400
392 -474 358 -1027 527 -1615 492z m445 -275 c394 -52 764 -217 1084 -483 224
-185 403 -414 540 -692 525 -1059 81 -2352 -984 -2869 -201 -98 -409 -161
-640 -195 -148 -22 -442 -22 -590 0 -1301 194 -2120 1460 -1759 2718 112 391
342 750 648 1014 479 412 1077 590 1701 507z"/>
<path d="M4871 8189 c-85 -16 -161 -80 -161 -134 0 -9 11 -27 26 -41 28 -29
57 -27 106 7 44 31 92 35 117 10 34 -34 26 -60 -32 -116 -77 -74 -82 -81 -87
-157 l-5 -70 -125 -47 c-329 -126 -630 -312 -842 -521 -82 -81 -98 -102 -98
-127 0 -78 135 -120 498 -153 475 -44 1280 -25 1579 36 217 45 251 91 146 204
-198 215 -551 437 -903 569 l-105 40 -3 46 c-3 46 -2 47 67 113 38 37 74 80
80 95 16 40 14 113 -4 146 -39 77 -150 121 -254 100z m162 -670 c252 -92 530
-250 726 -414 110 -91 114 -85 -66 -109 -410 -53 -1313 -45 -1656 14 -37 7
-67 14 -67 16 0 2 42 38 93 81 160 133 367 261 559 345 106 46 267 107 286
107 6 1 63 -17 125 -40z"/>
<path d="M8673 9498 c2 -7 191 -653 418 -1435 l414 -1423 222 0 222 0 35 113
c312 1005 531 1743 577 1944 51 219 55 233 77 233 12 0 22 -3 22 -6 0 -3 25
-112 55 -241 37 -160 140 -515 320 -1107 146 -479 271 -886 276 -903 l11 -33
223 0 224 0 11 38 c6 20 193 665 414 1432 l403 1395 -185 3 c-102 1 -187 1
-189 -1 -5 -5 -572 -2244 -618 -2439 -31 -133 -40 -158 -55 -158 -14 0 -21 13
-30 53 -60 261 -149 586 -383 1392 l-272 940 -218 3 c-119 1 -217 0 -217 -3 0
-4 -126 -443 -280 -978 -155 -534 -301 -1052 -326 -1151 -67 -270 -63 -256
-83 -256 -15 0 -24 30 -59 203 -31 150 -387 1568 -593 2360 l-10 37 -205 0
c-160 0 -205 -3 -201 -12z"/>
<path d="M12995 9498 c-2 -7 -14 -65 -25 -128 -12 -63 -24 -125 -27 -137 l-5
-23 476 0 476 0 0 -1285 0 -1285 195 0 195 0 0 1285 0 1285 467 2 466 3 28
140 c15 77 28 143 28 148 1 4 -510 7 -1134 7 -900 0 -1137 -3 -1140 -12z"/>
<path d="M15800 8075 l0 -1435 195 0 195 0 0 675 0 675 524 0 523 0 27 139
c14 76 26 144 26 150 0 8 -152 11 -550 11 l-550 0 0 460 0 460 619 0 c582 0
620 1 625 18 2 9 14 69 26 132 11 63 23 123 26 133 5 16 -40 17 -840 17 l-846
0 0 -1435z"/>
</g>
</svg>
